<?xml version="1.0" standalone="no"?>
<!DOCTYPE svg PUBLIC "-//W3C//DTD SVG 20010904//EN"
 "http://www.w3.org/TR/2001/REC-SVG-20010904/DTD/svg10.dtd">
<svg version="1.0" xmlns="http://www.w3.org/2000/svg"
 width="486.000000pt" height="486.000000pt" viewBox="0 0 486.000000 486.000000"
 preserveAspectRatio="xMidYMid meet">
<metadata>
Created by potrace 1.11, written by Peter Selinger 2001-2013
</metadata>
<g transform="translate(0.000000,486.000000) scale(0.100000,-0.100000)"
fill="#000000" stroke="none">
<path d="M2931 4695 c-132 -21 -215 -44 -381 -105 -154 -57 -875 -295 -1105
-365 -66 -20 -151 -51 -190 -70 -38 -18 -129 -56 -202 -84 -72 -29 -146 -62
-165 -74 -49 -33 -68 -100 -78 -287 -5 -85 -21 -326 -35 -535 -21 -312 -24
-419 -19 -600 4 -144 2 -287 -6 -415 -25 -366 -18 -774 25 -1354 l13 -178 46
-93 c85 -173 162 -252 309 -320 72 -34 242 -85 280 -85 10 0 39 -9 64 -21 45
-20 48 -20 106 -4 33 9 72 25 86 36 14 10 94 41 176 69 83 28 220 84 305 125
190 89 259 114 442 160 174 43 511 156 708 237 80 33 237 95 349 139 232 91
336 141 359 177 13 20 16 47 14 126 -2 56 4 163 13 238 12 112 14 231 10 650
-3 401 -1 561 11 733 23 329 25 1108 2 1277 -23 179 -49 210 -156 193 -95 -15
-123 -11 -222 35 -52 24 -150 65 -217 90 -135 51 -216 109 -228 166 -10 44
-25 71 -65 114 -36 39 -39 40 -101 39 -35 -1 -102 -7 -148 -14z m239 -184 c0
-14 -10 -21 -32 -26 -82 -18 -413 -118 -508 -153 -58 -22 -193 -68 -300 -102
-107 -35 -274 -96 -370 -137 -237 -101 -314 -129 -460 -168 -69 -18 -163 -47
-209 -64 -47 -17 -91 -31 -98 -31 -17 0 -35 37 -28 59 6 21 145 78 340 140 72
23 285 95 475 161 190 65 372 126 405 135 33 10 110 37 172 61 120 46 248 82
433 119 148 30 180 31 180 6z m86 -93 l48 -32 -30 -8 c-16 -5 -85 -22 -154
-38 -69 -16 -177 -48 -240 -71 -63 -23 -205 -72 -315 -109 -176 -59 -286 -100
-695 -256 -52 -20 -167 -62 -255 -94 -88 -32 -196 -72 -240 -89 -72 -28 -81
-29 -102 -16 -29 20 -57 61 -48 74 6 11 276 101 301 101 19 0 222 66 309 100
39 15 117 50 175 78 58 27 193 78 300 112 107 34 254 84 326 110 135 51 400
129 571 170 1 0 23 -14 49 -32z m172 -90 c34 -12 62 -24 62 -27 0 -6 -142 -62
-271 -107 -40 -14 -113 -34 -160 -44 -48 -10 -159 -48 -247 -84 -184 -75 -352
-137 -537 -197 -169 -54 -367 -127 -489 -178 -53 -23 -129 -49 -169 -58 -40
-9 -83 -24 -97 -33 -24 -17 -27 -16 -94 11 -38 15 -73 32 -78 37 -5 5 36 24
102 46 61 20 192 68 292 107 99 39 238 91 310 115 71 25 177 66 236 91 59 25
141 56 182 70 41 14 116 38 165 55 50 16 161 54 249 84 87 31 206 66 265 79
58 14 126 31 151 39 59 19 56 19 128 -6z m227 -94 c57 -26 57 -27 34 -39 -13
-7 -148 -54 -299 -105 -151 -51 -343 -119 -426 -151 -84 -32 -198 -71 -255
-88 -57 -17 -196 -62 -309 -100 -113 -38 -261 -82 -330 -96 -165 -36 -349 -84
-380 -100 -19 -10 -38 -11 -78 -3 -28 6 -52 15 -52 19 0 5 3 9 8 10 4 0 16 2
27 4 11 2 38 6 59 10 22 3 123 39 225 79 193 76 427 156 591 201 52 15 142 49
200 75 58 27 191 76 295 110 105 34 285 93 400 130 116 38 215 69 221 70 7 0
38 -12 69 -26z m25 -391 c26 -24 33 -42 50 -131 11 -56 20 -136 20 -176 0 -64
-3 -76 -25 -100 -34 -37 -70 -34 -96 7 -19 29 -20 44 -16 174 3 102 8 147 18
160 9 11 3 9 -16 -5 -107 -82 -197 -122 -272 -122 -44 0 -83 20 -83 42 0 18
51 76 88 100 57 37 158 71 195 66 17 -3 46 -1 62 3 17 3 33 7 37 8 4 0 21 -11
38 -26z m-468 -170 c10 -9 18 -23 18 -31 0 -21 -39 -62 -58 -62 -41 0 -69 69
-40 98 17 17 58 15 80 -5z m-218 -96 c14 -21 -13 -51 -37 -41 -20 7 -22 35 -5
52 15 15 28 11 42 -11z m-156 -54 c3 -18 -6 -27 -45 -46 -26 -13 -67 -27 -91
-30 -24 -3 -52 -13 -62 -22 -26 -23 -55 -16 -55 15 0 32 50 65 112 74 26 4 59
13 73 21 35 20 64 15 68 -12z m-1814 -123 c14 -22 45 -52 69 -66 23 -15 81
-53 129 -85 174 -116 272 -153 331 -125 15 7 17 1 17 -57 0 -57 -3 -68 -22
-81 -12 -9 -34 -16 -49 -16 -47 0 -159 40 -232 84 -40 23 -94 53 -122 66 -27
13 -78 51 -112 85 l-63 61 0 80 c0 108 11 119 54 54z m1388 -7 c22 -20 23 -41
1 -65 -27 -30 -83 -18 -83 18 0 16 39 64 52 64 6 0 20 -7 30 -17z m-132 -47
c38 -17 37 -49 -2 -81 -45 -39 -91 -56 -127 -49 -17 4 -50 3 -75 0 -44 -7 -45
-7 -39 -42 9 -57 -37 -91 -87 -64 -10 5 -25 7 -33 4 -13 -5 -13 -9 -1 -32 8
-15 14 -32 14 -39 0 -6 11 -35 25 -65 35 -76 34 -140 -5 -201 -33 -53 -50 -58
-85 -22 -25 24 -25 26 -24 207 0 230 7 274 45 305 16 13 43 23 59 23 17 0 40
6 51 14 11 8 47 26 80 40 49 21 69 24 119 19 33 -3 71 -10 85 -17z m1435 -6
c17 -19 17 -21 0 -40 -10 -11 -23 -20 -30 -20 -7 0 -20 9 -30 20 -17 19 -17
21 0 40 10 11 23 20 30 20 7 0 20 -9 30 -20z m-878 -258 c16 -11 41 -43 56
-70 28 -51 34 -81 82 -430 25 -177 57 -305 106 -421 23 -52 90 -161 101 -161
3 0 9 14 13 31 4 17 20 46 37 65 37 42 77 45 113 9 22 -21 25 -33 25 -97 0
-80 -22 -201 -40 -223 -7 -8 -37 -23 -67 -35 l-55 -20 -67 20 c-117 35 -173
120 -266 404 l-23 70 -35 -70 c-19 -38 -88 -190 -152 -338 -95 -216 -126 -278
-159 -313 -85 -91 -178 -74 -199 36 -9 46 39 188 138 406 42 94 119 262 170
375 50 113 101 223 112 245 18 34 20 48 12 100 -18 123 -32 185 -40 185 -12 0
-112 -136 -138 -187 -40 -79 -104 -97 -157 -42 -25 26 -29 37 -27 79 2 56 42
142 108 236 116 162 251 218 352 146z m888 -22 c4 -6 1 -18 -6 -26 -11 -13
-14 -13 -27 0 -8 8 -11 19 -8 25 9 14 33 14 41 1z m15 -180 c17 -10 28 -115
29 -271 2 -216 -50 -299 -103 -163 -36 92 -15 374 32 427 17 19 21 20 42 7z
m-1801 -214 c17 -21 10 -87 -11 -100 -14 -8 -22 -6 -37 9 -31 32 -35 61 -12
84 25 25 44 27 60 7z m-46 -310 c8 -19 -15 -37 -32 -26 -17 10 -7 40 13 40 7
0 16 -6 19 -14z m1849 -143 c23 -21 23 -36 -3 -59 -22 -19 -43 -13 -63 19 -8
12 -5 21 8 36 23 25 34 26 58 4z m-1852 -48 c14 -16 12 -43 -15 -300 -20 -189
-37 -231 -79 -189 -25 24 -23 350 2 421 10 28 24 58 31 67 17 20 45 21 61 1z
m1834 -191 c20 -20 20 -43 0 -72 -17 -24 -43 -29 -62 -10 -18 18 -15 42 9 72
24 30 32 32 53 10z m3 -144 c18 -35 16 -275 -3 -370 -29 -146 -25 -139 -84
-181 -30 -22 -70 -46 -88 -55 -46 -21 -189 -36 -213 -23 -43 22 -7 84 71 124
38 19 169 55 201 55 4 0 9 82 12 183 5 172 17 256 40 285 16 20 50 10 64 -18z
m-1881 -282 c9 -28 -20 -52 -47 -37 -19 10 -25 39 -12 52 15 16 52 6 59 -15z
m1406 -305 c24 -21 23 -48 -2 -73 -24 -24 -34 -25 -54 -4 -22 21 -20 50 4 74
24 24 28 25 52 3z m-1444 -5 c17 -17 15 -73 -3 -88 -22 -18 -63 2 -71 34 -12
50 40 88 74 54z m1226 -72 c9 -13 7 -20 -7 -31 -35 -25 -70 10 -40 40 18 18
32 16 47 -9z m-134 -25 c13 -26 -13 -46 -125 -96 -90 -41 -120 -40 -120 0 0
20 0 20 115 74 98 45 115 48 130 22z m-1825 -130 c88 -92 157 -132 295 -170
40 -11 74 -22 75 -23 1 -2 5 -40 8 -86 6 -70 4 -84 -9 -89 -31 -12 -166 27
-261 74 -77 38 -106 59 -154 112 -34 37 -64 81 -69 101 -15 58 -15 167 1 186
12 15 14 15 24 -2 5 -10 46 -57 90 -103z m729 30 c15 -16 17 -39 17 -151 -1
-73 -4 -144 -8 -159 l-6 -25 29 19 c87 58 242 120 284 113 53 -7 51 -65 -3
-79 -15 -4 -51 -24 -79 -45 -71 -50 -159 -85 -230 -89 -85 -5 -93 10 -93 182
0 92 4 136 13 145 6 6 12 25 12 42 0 27 24 66 40 66 4 0 15 -9 24 -19z m747
-57 c17 -21 0 -49 -32 -49 -27 0 -37 28 -19 50 16 19 34 19 51 -1z m-257 -90
c22 -21 20 -46 -5 -78 -31 -39 -66 -35 -85 10 -14 32 -13 38 1 60 18 28 65 33
89 8z"/>
</g>
</svg>
